<?xml version="1.0" encoding="utf-8"?>
<!-- Generator: Adobe Illustrator 21.0.0, SVG Export Plug-In . SVG Version: 6.00 Build 0)  -->
<svg version="1.1" xmlns="http://www.w3.org/2000/svg" xmlns:xlink="http://www.w3.org/1999/xlink" x="0px" y="0px"
	 viewBox="0 0 170.6 171" style="enable-background:new 0 0 170.6 171;" xml:space="preserve">
<style type="text/css">
	.st0{display:none;}
	.st1{display:inline;fill:#4937F4;}
	.st2{display:inline;fill:#7861FF;}
	.st3{display:inline;fill:#CECECE;}
	.st4{display:inline;fill:#F2F2F2;}
	.st5{fill:#7861FF;}
	.st6{fill:#4937F4;}
	.st7{fill:#F2F2F2;}
	.st8{fill:#CECECE;}
	.st9{display:inline;}
</style>
<g id="Capa_1" class="st0">
	<rect x="170.7" y="170" class="st1" width="170.6" height="190"/>
	<rect x="170.7" y="170" class="st2" width="85.3" height="190"/>
	<polygon class="st3" points="245.9,306.5 287.4,265 245.9,223.4 224.6,244.7 244.9,265 224.6,285.3 	"/>
	<polygon class="st4" points="224.6,244.7 245.9,223.4 256,233.6 256,296.3 245.9,306.5 224.6,285.3 244.9,265 	"/>
</g>
<g id="Layer_4">
	<rect y="-11" class="st5" width="170.6" height="190"/>
	<rect x="85.3" y="-11" class="st6" width="85.3" height="190"/>
	<polygon class="st7" points="85.3,117.4 43.8,75.9 65,54.7 85.3,75 105.6,54.7 126.8,75.9 	"/>
	<polygon class="st8" points="105.6,54.7 85.3,75 85.3,117.4 126.8,75.9 	"/>
</g>
<g id="Layer_3" class="st0">
	<rect x="-0.7" y="-6" class="st2" width="170.6" height="190"/>
	<rect x="84.6" y="-6" class="st1" width="85.3" height="190"/>
	<polygon class="st4" points="94.8,130.5 53.3,89 94.8,47.4 116,68.7 95.7,89 116,109.3 	"/>
	<polygon class="st3" points="116,68.7 94.8,47.4 84.6,57.6 84.6,120.3 94.8,130.5 116,109.3 95.7,89 	"/>
</g>
<g id="Layer_2" class="st0">
	<g class="st9">
		<rect class="st5" width="170.6" height="171"/>
		<rect x="85.3" class="st6" width="85.3" height="171"/>
		<polygon class="st7" points="105.6,114.5 85.3,95.7 65,114.5 43.8,94.9 85.3,56.5 126.8,94.9 		"/>
		<polygon class="st8" points="85.3,56.5 85.3,95.7 105.6,114.5 126.8,94.9 		"/>
	</g>
</g>
</svg>
